<mxfile host="app.diagrams.net" modified="2024-01-18T06:38:12.118Z" agent="Mozilla/5.0 (X11; Linux x86_64) AppleWebKit/537.36 (KHTML, like Gecko) Chrome/117.0.0.0 Safari/537.36 Edg/117.0.2045.55" etag="PFXZgVln05pJlGX8jC9W" version="22.1.20" type="github" pages="2">
  <diagram id="C5RBs43oDa-KdzZeNtuy" name="Page-1">
    <mxGraphModel dx="1346" dy="775" grid="1" gridSize="10" guides="1" tooltips="1" connect="1" arrows="1" fold="1" page="1" pageScale="1" pageWidth="827" pageHeight="1169" math="0" shadow="0">
      <root>
        <mxCell id="WIyWlLk6GJQsqaUBKTNV-0" />
        <mxCell id="WIyWlLk6GJQsqaUBKTNV-1" parent="WIyWlLk6GJQsqaUBKTNV-0" />
        <mxCell id="WIyWlLk6GJQsqaUBKTNV-3" value="&lt;font style=&quot;font-size: 18px;&quot;&gt;add ;&lt;br&gt;sub ;&lt;br&gt;mul ;&lt;br&gt;&lt;/font&gt;" style="rounded=1;whiteSpace=wrap;html=1;fontSize=12;glass=0;strokeWidth=1;shadow=0;" parent="WIyWlLk6GJQsqaUBKTNV-1" vertex="1">
          <mxGeometry x="135" y="270" width="100" height="130" as="geometry" />
        </mxCell>
        <mxCell id="2ynxKw8FbLTtFjrFdyPT-0" value="&lt;font size=&quot;3&quot;&gt;用户 cnasm 程序&lt;/font&gt;" style="rounded=0;whiteSpace=wrap;html=1;strokeColor=none;fillColor=none;" parent="WIyWlLk6GJQsqaUBKTNV-1" vertex="1">
          <mxGeometry x="100" y="410" width="170" height="30" as="geometry" />
        </mxCell>
        <mxCell id="2ynxKw8FbLTtFjrFdyPT-1" value="&lt;font style=&quot;font-size: 18px;&quot;&gt;nop ;&lt;br&gt;mul ;&lt;br&gt;sub ;&lt;br&gt;add ;&lt;br&gt;&lt;/font&gt;" style="rounded=1;whiteSpace=wrap;html=1;fontSize=12;glass=0;strokeWidth=1;shadow=0;" parent="WIyWlLk6GJQsqaUBKTNV-1" vertex="1">
          <mxGeometry x="300" y="270" width="100" height="130" as="geometry" />
        </mxCell>
        <mxCell id="2ynxKw8FbLTtFjrFdyPT-2" value="&lt;font style=&quot;font-size: 18px;&quot;&gt;add ;&lt;br&gt;sub ;&lt;br&gt;mul ;&lt;br&gt;nop ;&lt;br&gt;&lt;/font&gt;" style="rounded=1;whiteSpace=wrap;html=1;fontSize=12;glass=0;strokeWidth=1;shadow=0;" parent="WIyWlLk6GJQsqaUBKTNV-1" vertex="1">
          <mxGeometry x="465" y="270" width="100" height="130" as="geometry" />
        </mxCell>
        <mxCell id="2ynxKw8FbLTtFjrFdyPT-3" value="&lt;font size=&quot;3&quot;&gt;补 nop 并逆序后&lt;br&gt;cninst 顺序&lt;/font&gt;" style="rounded=0;whiteSpace=wrap;html=1;strokeColor=none;fillColor=none;" parent="WIyWlLk6GJQsqaUBKTNV-1" vertex="1">
          <mxGeometry x="262.5" y="410" width="175" height="50" as="geometry" />
        </mxCell>
        <mxCell id="2ynxKw8FbLTtFjrFdyPT-4" value="&lt;font size=&quot;3&quot;&gt;实际执行顺序&lt;/font&gt;" style="rounded=0;whiteSpace=wrap;html=1;strokeColor=none;fillColor=none;" parent="WIyWlLk6GJQsqaUBKTNV-1" vertex="1">
          <mxGeometry x="430" y="410" width="170" height="30" as="geometry" />
        </mxCell>
      </root>
    </mxGraphModel>
  </diagram>
  <diagram id="EGi2D9DsI6ebJyx4IINf" name="第 2 页">
    <mxGraphModel dx="1346" dy="775" grid="1" gridSize="10" guides="1" tooltips="1" connect="1" arrows="1" fold="1" page="1" pageScale="1" pageWidth="827" pageHeight="1169" math="0" shadow="0">
      <root>
        <mxCell id="0" />
        <mxCell id="1" parent="0" />
        <mxCell id="wfcS7PiTrL4q3BS2WW-R-1" value="&lt;font style=&quot;font-size: 18px;&quot;&gt;add ;&lt;br&gt;sub ;&lt;br&gt;mul ;&lt;br&gt;nop ;&lt;br&gt;&lt;/font&gt;" style="rounded=1;whiteSpace=wrap;html=1;fontSize=12;glass=0;strokeWidth=1;shadow=0;" vertex="1" parent="1">
          <mxGeometry x="135" y="270" width="100" height="130" as="geometry" />
        </mxCell>
        <mxCell id="wfcS7PiTrL4q3BS2WW-R-2" value="&lt;font size=&quot;3&quot;&gt;用户 cnasm 程序&lt;/font&gt;" style="rounded=0;whiteSpace=wrap;html=1;strokeColor=none;fillColor=none;" vertex="1" parent="1">
          <mxGeometry x="100" y="410" width="170" height="30" as="geometry" />
        </mxCell>
        <mxCell id="wfcS7PiTrL4q3BS2WW-R-3" value="&lt;font style=&quot;font-size: 18px;&quot;&gt;nop ;&lt;br&gt;mul ;&lt;br&gt;sub ;&lt;br&gt;add ;&lt;br&gt;&lt;/font&gt;" style="rounded=1;whiteSpace=wrap;html=1;fontSize=12;glass=0;strokeWidth=1;shadow=0;" vertex="1" parent="1">
          <mxGeometry x="300" y="270" width="100" height="130" as="geometry" />
        </mxCell>
        <mxCell id="wfcS7PiTrL4q3BS2WW-R-4" value="&lt;font style=&quot;font-size: 18px;&quot;&gt;add ;&lt;br&gt;sub ;&lt;br&gt;mul ;&lt;br&gt;nop ;&lt;br&gt;&lt;/font&gt;" style="rounded=1;whiteSpace=wrap;html=1;fontSize=12;glass=0;strokeWidth=1;shadow=0;" vertex="1" parent="1">
          <mxGeometry x="465" y="270" width="100" height="130" as="geometry" />
        </mxCell>
        <mxCell id="wfcS7PiTrL4q3BS2WW-R-5" value="&lt;font size=&quot;3&quot;&gt;内部 cninst 顺序&lt;/font&gt;" style="rounded=0;whiteSpace=wrap;html=1;strokeColor=none;fillColor=none;" vertex="1" parent="1">
          <mxGeometry x="262.5" y="400" width="175" height="50" as="geometry" />
        </mxCell>
        <mxCell id="wfcS7PiTrL4q3BS2WW-R-6" value="&lt;font size=&quot;3&quot;&gt;实际执行顺序&lt;/font&gt;" style="rounded=0;whiteSpace=wrap;html=1;strokeColor=none;fillColor=none;" vertex="1" parent="1">
          <mxGeometry x="430" y="410" width="170" height="30" as="geometry" />
        </mxCell>
      </root>
    </mxGraphModel>
  </diagram>
</mxfile>
